<?xml version="1.0" encoding="UTF-8" ?>
<svg version="1.1" width="64" height="64" xmlns="http://www.w3.org/2000/svg" shape-rendering="crispEdges">
<rect x="0" y="0" width="64" height="1" fill="#D8CFF0" />
<rect x="0" y="1" width="11" height="1" fill="#D8CFF0" />
<rect x="11" y="1" width="8" height="2" fill="#000000" />
<rect x="19" y="1" width="26" height="1" fill="#D8CFF0" />
<rect x="45" y="1" width="8" height="2" fill="#000000" />
<rect x="53" y="1" width="11" height="1" fill="#D8CFF0" />
<rect x="0" y="2" width="10" height="1" fill="#D8CFF0" />
<rect x="10" y="2" width="1" height="4" fill="#000000" />
<rect x="19" y="2" width="1" height="3" fill="#000000" />
<rect x="20" y="2" width="24" height="1" fill="#D8CFF0" />
<rect x="44" y="2" width="1" height="3" fill="#000000" />
<rect x="53" y="2" width="1" height="4" fill="#000000" />
<rect x="54" y="2" width="10" height="1" fill="#D8CFF0" />
<rect x="0" y="3" width="9" height="2" fill="#D8CFF0" />
<rect x="9" y="3" width="1" height="8" fill="#000000" />
<rect x="11" y="3" width="3" height="1" fill="#000000" />
<rect x="14" y="3" width="4" height="2" fill="#FF45EA" />
<rect x="18" y="3" width="1" height="1" fill="#000000" />
<rect x="20" y="3" width="1" height="8" fill="#000000" />
<rect x="21" y="3" width="22" height="1" fill="#D8CFF0" />
<rect x="43" y="3" width="1" height="8" fill="#000000" />
<rect x="45" y="3" width="1" height="1" fill="#000000" />
<rect x="46" y="3" width="4" height="2" fill="#FF45EA" />
<rect x="50" y="3" width="3" height="1" fill="#000000" />
<rect x="54" y="3" width="1" height="8" fill="#000000" />
<rect x="55" y="3" width="9" height="2" fill="#D8CFF0" />
<rect x="11" y="4" width="3" height="3" fill="#FF45EA" />
<rect x="18" y="4" width="1" height="3" fill="#FF45EA" />
<rect x="21" y="4" width="1" height="8" fill="#000000" />
<rect x="22" y="4" width="20" height="5" fill="#D8CFF0" />
<rect x="42" y="4" width="1" height="8" fill="#000000" />
<rect x="45" y="4" width="1" height="3" fill="#FF45EA" />
<rect x="50" y="4" width="3" height="3" fill="#FF45EA" />
<rect x="0" y="5" width="8" height="59" fill="#D8CFF0" />
<rect x="8" y="5" width="1" height="4" fill="#000000" />
<rect x="14" y="5" width="1" height="1" fill="#FF45EA" />
<rect x="15" y="5" width="1" height="4" fill="#000000" />
<rect x="16" y="5" width="2" height="1" fill="#FF45EA" />
<rect x="19" y="5" width="1" height="1" fill="#FF45EA" />
<rect x="44" y="5" width="1" height="1" fill="#FF45EA" />
<rect x="46" y="5" width="2" height="1" fill="#FF45EA" />
<rect x="48" y="5" width="1" height="4" fill="#000000" />
<rect x="49" y="5" width="1" height="1" fill="#FF45EA" />
<rect x="55" y="5" width="1" height="4" fill="#000000" />
<rect x="56" y="5" width="8" height="10" fill="#D8CFF0" />
<rect x="10" y="6" width="1" height="1" fill="#FF45EA" />
<rect x="14" y="6" width="1" height="3" fill="#000000" />
<rect x="16" y="6" width="2" height="2" fill="#000000" />
<rect x="19" y="6" width="1" height="1" fill="#000000" />
<rect x="44" y="6" width="1" height="1" fill="#000000" />
<rect x="46" y="6" width="2" height="2" fill="#000000" />
<rect x="49" y="6" width="1" height="3" fill="#000000" />
<rect x="53" y="6" width="1" height="1" fill="#FF45EA" />
<rect x="10" y="7" width="1" height="5" fill="#000000" />
<rect x="11" y="7" width="2" height="2" fill="#FF45EA" />
<rect x="13" y="7" width="1" height="2" fill="#000000" />
<rect x="18" y="7" width="1" height="1" fill="#000000" />
<rect x="19" y="7" width="1" height="3" fill="#FF5B62" />
<rect x="44" y="7" width="1" height="3" fill="#FF5B62" />
<rect x="45" y="7" width="1" height="1" fill="#000000" />
<rect x="50" y="7" width="1" height="2" fill="#000000" />
<rect x="51" y="7" width="2" height="2" fill="#FF45EA" />
<rect x="53" y="7" width="1" height="8" fill="#000000" />
<rect x="16" y="8" width="1" height="1" fill="#000000" />
<rect x="17" y="8" width="2" height="3" fill="#FF5B62" />
<rect x="45" y="8" width="2" height="3" fill="#FF5B62" />
<rect x="47" y="8" width="1" height="1" fill="#000000" />
<rect x="8" y="9" width="1" height="55" fill="#D8CFF0" />
<rect x="11" y="9" width="2" height="1" fill="#000000" />
<rect x="13" y="9" width="4" height="3" fill="#FF5B62" />
<rect x="22" y="9" width="1" height="4" fill="#000000" />
<rect x="23" y="9" width="18" height="1" fill="#D8CFF0" />
<rect x="41" y="9" width="1" height="4" fill="#000000" />
<rect x="47" y="9" width="4" height="3" fill="#FF5B62" />
<rect x="51" y="9" width="2" height="1" fill="#000000" />
<rect x="55" y="9" width="1" height="5" fill="#D8CFF0" />
<rect x="11" y="10" width="1" height="3" fill="#000000" />
<rect x="12" y="10" width="1" height="1" fill="#FF5B62" />
<rect x="19" y="10" width="1" height="5" fill="#000000" />
<rect x="23" y="10" width="1" height="4" fill="#000000" />
<rect x="24" y="10" width="16" height="1" fill="#D8CFF0" />
<rect x="40" y="10" width="1" height="4" fill="#000000" />
<rect x="44" y="10" width="1" height="5" fill="#000000" />
<rect x="51" y="10" width="1" height="1" fill="#FF5B62" />
<rect x="52" y="10" width="1" height="4" fill="#000000" />
<rect x="9" y="11" width="1" height="53" fill="#D8CFF0" />
<rect x="12" y="11" width="1" height="3" fill="#000000" />
<rect x="17" y="11" width="1" height="1" fill="#FF5B62" />
<rect x="18" y="11" width="1" height="3" fill="#000000" />
<rect x="20" y="11" width="1" height="1" fill="#FF5B62" />
<rect x="24" y="11" width="1" height="5" fill="#000000" />
<rect x="25" y="11" width="14" height="2" fill="#D8CFF0" />
<rect x="39" y="11" width="1" height="5" fill="#000000" />
<rect x="43" y="11" width="1" height="1" fill="#FF5B62" />
<rect x="45" y="11" width="1" height="3" fill="#000000" />
<rect x="46" y="11" width="1" height="1" fill="#FF5B62" />
<rect x="51" y="11" width="1" height="6" fill="#000000" />
<rect x="54" y="11" width="1" height="2" fill="#D8CFF0" />
<rect x="10" y="12" width="1" height="37" fill="#D8CFF0" />
<rect x="13" y="12" width="5" height="2" fill="#000000" />
<rect x="20" y="12" width="1" height="4" fill="#000000" />
<rect x="21" y="12" width="1" height="1" fill="#FF5B62" />
<rect x="42" y="12" width="1" height="1" fill="#FF5B62" />
<rect x="43" y="12" width="1" height="4" fill="#000000" />
<rect x="46" y="12" width="5" height="2" fill="#000000" />
<rect x="11" y="13" width="1" height="24" fill="#D8CFF0" />
<rect x="21" y="13" width="1" height="4" fill="#000000" />
<rect x="22" y="13" width="1" height="2" fill="#FF5B62" />
<rect x="25" y="13" width="1" height="4" fill="#000000" />
<rect x="26" y="13" width="9" height="1" fill="#D8CFF0" />
<rect x="35" y="13" width="4" height="4" fill="#000000" />
<rect x="41" y="13" width="1" height="2" fill="#FF5B62" />
<rect x="42" y="13" width="1" height="4" fill="#000000" />
<rect x="54" y="13" width="1" height="3" fill="#000000" />
<rect x="12" y="14" width="7" height="12" fill="#D8CFF0" />
<rect x="23" y="14" width="1" height="2" fill="#FF5B62" />
<rect x="26" y="14" width="1" height="9" fill="#000000" />
<rect x="27" y="14" width="7" height="1" fill="#D8CFF0" />
<rect x="34" y="14" width="1" height="3" fill="#000000" />
<rect x="40" y="14" width="1" height="2" fill="#FF5B62" />
<rect x="45" y="14" width="4" height="1" fill="#D8CFF0" />
<rect x="49" y="14" width="2" height="3" fill="#000000" />
<rect x="52" y="14" width="1" height="1" fill="#FEEC98" />
<rect x="55" y="14" width="1" height="3" fill="#000000" />
<rect x="19" y="15" width="1" height="10" fill="#D8CFF0" />
<rect x="22" y="15" width="1" height="11" fill="#000000" />
<rect x="27" y="15" width="7" height="2" fill="#000000" />
<rect x="41" y="15" width="1" height="11" fill="#000000" />
<rect x="44" y="15" width="4" height="1" fill="#D8CFF0" />
<rect x="48" y="15" width="1" height="5" fill="#000000" />
<rect x="52" y="15" width="1" height="3" fill="#000000" />
<rect x="53" y="15" width="1" height="1" fill="#FEEC98" />
<rect x="56" y="15" width="1" height="3" fill="#000000" />
<rect x="57" y="15" width="7" height="1" fill="#D8CFF0" />
<rect x="20" y="16" width="1" height="8" fill="#D8CFF0" />
<rect x="23" y="16" width="1" height="6" fill="#000000" />
<rect x="24" y="16" width="1" height="2" fill="#FF5B62" />
<rect x="39" y="16" width="1" height="2" fill="#FF5B62" />
<rect x="40" y="16" width="1" height="6" fill="#000000" />
<rect x="43" y="16" width="4" height="2" fill="#D8CFF0" />
<rect x="47" y="16" width="1" height="3" fill="#000000" />
<rect x="53" y="16" width="1" height="3" fill="#000000" />
<rect x="54" y="16" width="1" height="1" fill="#FEEC98" />
<rect x="57" y="16" width="1" height="5" fill="#000000" />
<rect x="58" y="16" width="2" height="1" fill="#8F974A" />
<rect x="60" y="16" width="2" height="2" fill="#B1BA5B" />
<rect x="62" y="16" width="2" height="2" fill="#D8CFF0" />
<rect x="21" y="17" width="1" height="3" fill="#D8CFF0" />
<rect x="25" y="17" width="1" height="4" fill="#FF5B62" />
<rect x="27" y="17" width="1" height="1" fill="#000000" />
<rect x="28" y="17" width="8" height="2" fill="#33ECFE" />
<rect x="36" y="17" width="2" height="1" fill="#000000" />
<rect x="38" y="17" width="1" height="4" fill="#FF5B62" />
<rect x="42" y="17" width="1" height="1" fill="#D8CFF0" />
<rect x="49" y="17" width="1" height="4" fill="#000000" />
<rect x="50" y="17" width="2" height="2" fill="#FEEC98" />
<rect x="54" y="17" width="1" height="7" fill="#000000" />
<rect x="55" y="17" width="1" height="1" fill="#FEEC98" />
<rect x="58" y="17" width="1" height="2" fill="#000000" />
<rect x="59" y="17" width="1" height="33" fill="#8F974A" />
<rect x="24" y="18" width="1" height="3" fill="#000000" />
<rect x="27" y="18" width="1" height="1" fill="#33ECFE" />
<rect x="36" y="18" width="1" height="1" fill="#33ECFE" />
<rect x="37" y="18" width="1" height="5" fill="#000000" />
<rect x="39" y="18" width="1" height="3" fill="#000000" />
<rect x="42" y="18" width="1" height="8" fill="#000000" />
<rect x="43" y="18" width="3" height="1" fill="#D8CFF0" />
<rect x="46" y="18" width="1" height="5" fill="#000000" />
<rect x="52" y="18" width="1" height="3" fill="#FEEC98" />
<rect x="55" y="18" width="1" height="5" fill="#000000" />
<rect x="56" y="18" width="1" height="1" fill="#FEEC98" />
<rect x="60" y="18" width="2" height="30" fill="#8F974A" />
<rect x="62" y="18" width="2" height="2" fill="#B1BA5B" />
<rect x="27" y="19" width="1" height="3" fill="#000000" />
<rect x="28" y="19" width="3" height="6" fill="#33ECFE" />
<rect x="31" y="19" width="2" height="4" fill="#000000" />
<rect x="33" y="19" width="3" height="6" fill="#33ECFE" />
<rect x="36" y="19" width="1" height="3" fill="#000000" />
<rect x="43" y="19" width="3" height="2" fill="#000000" />
<rect x="47" y="19" width="1" height="2" fill="#FEEC98" />
<rect x="50" y="19" width="1" height="3" fill="#000000" />
<rect x="51" y="19" width="1" height="1" fill="#FEEC98" />
<rect x="53" y="19" width="1" height="2" fill="#FEEC98" />
<rect x="56" y="19" width="1" height="3" fill="#000000" />
<rect x="58" y="19" width="1" height="31" fill="#8F974A" />
<rect x="21" y="20" width="1" height="6" fill="#000000" />
<rect x="48" y="20" width="1" height="2" fill="#FEEC98" />
<rect x="51" y="20" width="1" height="3" fill="#000000" />
<rect x="62" y="20" width="2" height="24" fill="#8F974A" />
<rect x="24" y="21" width="1" height="2" fill="#FF5B62" />
<rect x="25" y="21" width="1" height="2" fill="#000000" />
<rect x="38" y="21" width="1" height="2" fill="#000000" />
<rect x="39" y="21" width="1" height="2" fill="#FF5B62" />
<rect x="43" y="21" width="1" height="2" fill="#FEEC98" />
<rect x="44" y="21" width="2" height="1" fill="#000000" />
<rect x="47" y="21" width="1" height="3" fill="#000000" />
<rect x="49" y="21" width="1" height="2" fill="#FEEC98" />
<rect x="52" y="21" width="2" height="3" fill="#000000" />
<rect x="57" y="21" width="1" height="12" fill="#8F974A" />
<rect x="23" y="22" width="1" height="1" fill="#FF5B62" />
<rect x="27" y="22" width="1" height="3" fill="#33ECFE" />
<rect x="36" y="22" width="1" height="3" fill="#33ECFE" />
<rect x="40" y="22" width="1" height="1" fill="#FF5B62" />
<rect x="44" y="22" width="2" height="2" fill="#FEEC98" />
<rect x="48" y="22" width="1" height="3" fill="#000000" />
<rect x="50" y="22" width="1" height="2" fill="#FEEC98" />
<rect x="56" y="22" width="1" height="10" fill="#8F974A" />
<rect x="23" y="23" width="2" height="1" fill="#000000" />
<rect x="25" y="23" width="2" height="1" fill="#33ECFE" />
<rect x="31" y="23" width="2" height="2" fill="#33ECFE" />
<rect x="37" y="23" width="2" height="1" fill="#33ECFE" />
<rect x="39" y="23" width="2" height="1" fill="#000000" />
<rect x="43" y="23" width="1" height="4" fill="#000000" />
<rect x="46" y="23" width="1" height="3" fill="#FEEC98" />
<rect x="49" y="23" width="1" height="4" fill="#000000" />
<rect x="51" y="23" width="1" height="1" fill="#FEEC98" />
<rect x="55" y="23" width="1" height="8" fill="#8F974A" />
<rect x="20" y="24" width="1" height="3" fill="#000000" />
<rect x="23" y="24" width="1" height="2" fill="#000000" />
<rect x="24" y="24" width="1" height="4" fill="#FF5B62" />
<rect x="25" y="24" width="2" height="1" fill="#000000" />
<rect x="37" y="24" width="2" height="1" fill="#000000" />
<rect x="39" y="24" width="1" height="4" fill="#FF5B62" />
<rect x="40" y="24" width="1" height="2" fill="#000000" />
<rect x="44" y="24" width="1" height="4" fill="#000000" />
<rect x="45" y="24" width="1" height="1" fill="#FEEC98" />
<rect x="47" y="24" width="1" height="3" fill="#FEEC98" />
<rect x="50" y="24" width="3" height="1" fill="#000000" />
<rect x="53" y="24" width="2" height="5" fill="#8F974A" />
<rect x="19" y="25" width="1" height="3" fill="#000000" />
<rect x="25" y="25" width="2" height="3" fill="#FF5B62" />
<rect x="27" y="25" width="10" height="1" fill="#000000" />
<rect x="37" y="25" width="2" height="3" fill="#FF5B62" />
<rect x="45" y="25" width="1" height="4" fill="#000000" />
<rect x="48" y="25" width="1" height="4" fill="#FEEC98" />
<rect x="50" y="25" width="2" height="3" fill="#000000" />
<rect x="52" y="25" width="1" height="3" fill="#8F974A" />
<rect x="12" y="26" width="6" height="1" fill="#D8CFF0" />
<rect x="18" y="26" width="1" height="3" fill="#000000" />
<rect x="21" y="26" width="3" height="1" fill="#FF5B62" />
<rect x="27" y="26" width="10" height="3" fill="#FF5B62" />
<rect x="40" y="26" width="3" height="1" fill="#FF5B62" />
<rect x="46" y="26" width="1" height="5" fill="#000000" />
<rect x="12" y="27" width="5" height="1" fill="#D8CFF0" />
<rect x="17" y="27" width="1" height="4" fill="#000000" />
<rect x="20" y="27" width="2" height="1" fill="#FF5B62" />
<rect x="22" y="27" width="1" height="1" fill="#000000" />
<rect x="23" y="27" width="1" height="1" fill="#FF5B62" />
<rect x="40" y="27" width="1" height="1" fill="#FF5B62" />
<rect x="41" y="27" width="1" height="1" fill="#000000" />
<rect x="42" y="27" width="1" height="1" fill="#FF5B62" />
<rect x="43" y="27" width="1" height="1" fill="#3435FF" />
<rect x="47" y="27" width="1" height="6" fill="#000000" />
<rect x="49" y="27" width="1" height="3" fill="#FEEC98" />
<rect x="12" y="28" width="4" height="1" fill="#D8CFF0" />
<rect x="16" y="28" width="1" height="5" fill="#000000" />
<rect x="19" y="28" width="2" height="1" fill="#FF5B62" />
<rect x="21" y="28" width="1" height="2" fill="#000000" />
<rect x="22" y="28" width="1" height="1" fill="#3435FF" />
<rect x="23" y="28" width="4" height="1" fill="#000000" />
<rect x="37" y="28" width="4" height="1" fill="#000000" />
<rect x="41" y="28" width="1" height="1" fill="#3435FF" />
<rect x="42" y="28" width="1" height="2" fill="#000000" />
<rect x="43" y="28" width="2" height="1" fill="#FF5B62" />
<rect x="50" y="28" width="1" height="4" fill="#FEEC98" />
<rect x="51" y="28" width="2" height="1" fill="#000000" />
<rect x="12" y="29" width="3" height="1" fill="#D8CFF0" />
<rect x="15" y="29" width="1" height="6" fill="#000000" />
<rect x="18" y="29" width="1" height="3" fill="#FF5B62" />
<rect x="19" y="29" width="1" height="1" fill="#3435FF" />
<rect x="20" y="29" width="1" height="1" fill="#FF5B62" />
<rect x="22" y="29" width="1" height="4" fill="#FFFFFF" />
<rect x="23" y="29" width="3" height="1" fill="#3435FF" />
<rect x="26" y="29" width="12" height="1" fill="#000000" />
<rect x="38" y="29" width="3" height="1" fill="#3435FF" />
<rect x="41" y="29" width="1" height="4" fill="#FFFFFF" />
<rect x="43" y="29" width="1" height="1" fill="#FF5B62" />
<rect x="44" y="29" width="1" height="1" fill="#3435FF" />
<rect x="45" y="29" width="1" height="5" fill="#FF5B62" />
<rect x="48" y="29" width="1" height="6" fill="#000000" />
<rect x="51" y="29" width="1" height="7" fill="#FEEC98" />
<rect x="52" y="29" width="2" height="1" fill="#000000" />
<rect x="54" y="29" width="1" height="1" fill="#8F974A" />
<rect x="12" y="30" width="2" height="2" fill="#D8CFF0" />
<rect x="14" y="30" width="1" height="12" fill="#000000" />
<rect x="19" y="30" width="1" height="2" fill="#FF5B62" />
<rect x="20" y="30" width="1" height="3" fill="#000000" />
<rect x="21" y="30" width="1" height="2" fill="#FFFFFF" />
<rect x="23" y="30" width="3" height="2" fill="#FFFFFF" />
<rect x="26" y="30" width="1" height="2" fill="#000000" />
<rect x="27" y="30" width="4" height="1" fill="#3435FF" />
<rect x="31" y="30" width="2" height="11" fill="#000000" />
<rect x="33" y="30" width="4" height="1" fill="#3435FF" />
<rect x="37" y="30" width="1" height="2" fill="#000000" />
<rect x="38" y="30" width="3" height="2" fill="#FFFFFF" />
<rect x="42" y="30" width="1" height="2" fill="#FFFFFF" />
<rect x="43" y="30" width="1" height="3" fill="#000000" />
<rect x="44" y="30" width="1" height="2" fill="#FF5B62" />
<rect x="49" y="30" width="1" height="14" fill="#000000" />
<rect x="52" y="30" width="1" height="7" fill="#FEEC98" />
<rect x="53" y="30" width="2" height="1" fill="#000000" />
<rect x="17" y="31" width="1" height="5" fill="#FF5B62" />
<rect x="27" y="31" width="4" height="3" fill="#FFFFFF" />
<rect x="33" y="31" width="4" height="3" fill="#FFFFFF" />
<rect x="46" y="31" width="1" height="1" fill="#FF5B62" />
<rect x="53" y="31" width="1" height="6" fill="#FEEC98" />
<rect x="54" y="31" width="2" height="1" fill="#000000" />
<rect x="12" y="32" width="1" height="4" fill="#D8CFF0" />
<rect x="13" y="32" width="1" height="9" fill="#000000" />
<rect x="18" y="32" width="1" height="1" fill="#3435FF" />
<rect x="19" y="32" width="1" height="2" fill="#000000" />
<rect x="21" y="32" width="1" height="1" fill="#000000" />
<rect x="23" y="32" width="2" height="1" fill="#FFFFFF" />
<rect x="25" y="32" width="1" height="3" fill="#000000" />
<rect x="26" y="32" width="1" height="2" fill="#FFFFFF" />
<rect x="37" y="32" width="1" height="2" fill="#FFFFFF" />
<rect x="38" y="32" width="1" height="3" fill="#000000" />
<rect x="39" y="32" width="2" height="1" fill="#FFFFFF" />
<rect x="42" y="32" width="1" height="1" fill="#000000" />
<rect x="44" y="32" width="1" height="2" fill="#000000" />
<rect x="46" y="32" width="1" height="1" fill="#3435FF" />
<rect x="50" y="32" width="1" height="11" fill="#000000" />
<rect x="54" y="32" width="1" height="4" fill="#FEEC98" />
<rect x="55" y="32" width="2" height="1" fill="#000000" />
<rect x="16" y="33" width="1" height="2" fill="#FF5B62" />
<rect x="18" y="33" width="1" height="1" fill="#FF5B62" />
<rect x="20" y="33" width="2" height="5" fill="#FFFFFF" />
<rect x="22" y="33" width="2" height="1" fill="#000000" />
<rect x="24" y="33" width="1" height="1" fill="#FFFFFF" />
<rect x="39" y="33" width="1" height="1" fill="#FFFFFF" />
<rect x="40" y="33" width="2" height="1" fill="#000000" />
<rect x="42" y="33" width="2" height="5" fill="#FFFFFF" />
<rect x="46" y="33" width="2" height="2" fill="#FF5B62" />
<rect x="55" y="33" width="1" height="2" fill="#FEEC98" />
<rect x="56" y="33" width="2" height="3" fill="#000000" />
<rect x="18" y="34" width="1" height="2" fill="#000000" />
<rect x="19" y="34" width="1" height="4" fill="#FFFFFF" />
<rect x="22" y="34" width="2" height="4" fill="#FFFFFF" />
<rect x="24" y="34" width="1" height="5" fill="#000000" />
<rect x="26" y="34" width="3" height="1" fill="#000000" />
<rect x="29" y="34" width="2" height="1" fill="#FFFFFF" />
<rect x="33" y="34" width="2" height="1" fill="#FFFFFF" />
<rect x="35" y="34" width="3" height="1" fill="#000000" />
<rect x="39" y="34" width="1" height="5" fill="#000000" />
<rect x="40" y="34" width="2" height="4" fill="#FFFFFF" />
<rect x="44" y="34" width="1" height="4" fill="#FFFFFF" />
<rect x="45" y="34" width="1" height="2" fill="#000000" />
<rect x="15" y="35" width="1" height="3" fill="#FF5B62" />
<rect x="16" y="35" width="1" height="1" fill="#3435FF" />
<rect x="25" y="35" width="4" height="4" fill="#FFFFFF" />
<rect x="29" y="35" width="2" height="1" fill="#000000" />
<rect x="33" y="35" width="2" height="1" fill="#000000" />
<rect x="35" y="35" width="4" height="4" fill="#FFFFFF" />
<rect x="46" y="35" width="1" height="1" fill="#FF5B62" />
<rect x="47" y="35" width="1" height="1" fill="#3435FF" />
<rect x="48" y="35" width="1" height="4" fill="#FF5B62" />
<rect x="55" y="35" width="1" height="3" fill="#000000" />
<rect x="12" y="36" width="1" height="15" fill="#000000" />
<rect x="16" y="36" width="1" height="4" fill="#FF5B62" />
<rect x="17" y="36" width="1" height="2" fill="#000000" />
<rect x="18" y="36" width="1" height="1" fill="#FFFFFF" />
<rect x="29" y="36" width="2" height="3" fill="#FFFFFF" />
<rect x="33" y="36" width="2" height="3" fill="#FFFFFF" />
<rect x="45" y="36" width="1" height="1" fill="#FFFFFF" />
<rect x="46" y="36" width="1" height="2" fill="#000000" />
<rect x="47" y="36" width="1" height="1" fill="#FF5B62" />
<rect x="51" y="36" width="1" height="6" fill="#000000" />
<rect x="54" y="36" width="1" height="3" fill="#000000" />
<rect x="56" y="36" width="1" height="1" fill="#000000" />
<rect x="57" y="36" width="1" height="16" fill="#8F974A" />
<rect x="11" y="37" width="1" height="22" fill="#000000" />
<rect x="18" y="37" width="1" height="1" fill="#3435FF" />
<rect x="45" y="37" width="1" height="1" fill="#3435FF" />
<rect x="47" y="37" width="1" height="1" fill="#3435FF" />
<rect x="52" y="37" width="2" height="3" fill="#000000" />
<rect x="56" y="37" width="1" height="15" fill="#8F974A" />
<rect x="15" y="38" width="1" height="1" fill="#3435FF" />
<rect x="17" y="38" width="1" height="3" fill="#FF5B62" />
<rect x="18" y="38" width="1" height="1" fill="#000000" />
<rect x="19" y="38" width="4" height="1" fill="#3435FF" />
<rect x="23" y="38" width="1" height="2" fill="#000000" />
<rect x="40" y="38" width="1" height="2" fill="#000000" />
<rect x="41" y="38" width="4" height="1" fill="#3435FF" />
<rect x="45" y="38" width="1" height="1" fill="#000000" />
<rect x="46" y="38" width="2" height="2" fill="#FF5B62" />
<rect x="55" y="38" width="1" height="12" fill="#8F974A" />
<rect x="15" y="39" width="1" height="4" fill="#000000" />
<rect x="18" y="39" width="1" height="2" fill="#FF5B62" />
<rect x="19" y="39" width="4" height="1" fill="#000000" />
<rect x="24" y="39" width="7" height="1" fill="#3435FF" />
<rect x="33" y="39" width="7" height="1" fill="#3435FF" />
<rect x="41" y="39" width="4" height="1" fill="#000000" />
<rect x="45" y="39" width="1" height="1" fill="#FF5B62" />
<rect x="48" y="39" width="1" height="6" fill="#000000" />
<rect x="54" y="39" width="1" height="11" fill="#8F974A" />
<rect x="16" y="40" width="1" height="3" fill="#000000" />
<rect x="19" y="40" width="1" height="1" fill="#3435FF" />
<rect x="20" y="40" width="4" height="1" fill="#FF5B62" />
<rect x="24" y="40" width="7" height="1" fill="#000000" />
<rect x="33" y="40" width="7" height="1" fill="#000000" />
<rect x="40" y="40" width="5" height="1" fill="#FF5B62" />
<rect x="45" y="40" width="1" height="1" fill="#3435FF" />
<rect x="46" y="40" width="1" height="1" fill="#FF5B62" />
<rect x="47" y="40" width="1" height="9" fill="#000000" />
<rect x="52" y="40" width="1" height="1" fill="#000000" />
<rect x="53" y="40" width="1" height="9" fill="#8F974A" />
<rect x="13" y="41" width="1" height="6" fill="#FEEC98" />
<rect x="17" y="41" width="6" height="1" fill="#000000" />
<rect x="23" y="41" width="5" height="1" fill="#FF5B62" />
<rect x="28" y="41" width="1" height="1" fill="#3435FF" />
<rect x="29" y="41" width="6" height="1" fill="#FF5B62" />
<rect x="35" y="41" width="1" height="1" fill="#3435FF" />
<rect x="36" y="41" width="3" height="1" fill="#FF5B62" />
<rect x="39" y="41" width="1" height="1" fill="#3435FF" />
<rect x="40" y="41" width="1" height="1" fill="#FF5B62" />
<rect x="41" y="41" width="6" height="1" fill="#000000" />
<rect x="52" y="41" width="1" height="7" fill="#8F974A" />
<rect x="14" y="42" width="1" height="4" fill="#FEEC98" />
<rect x="17" y="42" width="3" height="2" fill="#000000" />
<rect x="20" y="42" width="1" height="3" fill="#FF5B62" />
<rect x="21" y="42" width="6" height="1" fill="#000000" />
<rect x="27" y="42" width="4" height="1" fill="#FF5B62" />
<rect x="31" y="42" width="2" height="3" fill="#000000" />
<rect x="33" y="42" width="4" height="1" fill="#FF5B62" />
<rect x="37" y="42" width="6" height="1" fill="#000000" />
<rect x="43" y="42" width="1" height="3" fill="#FF5B62" />
<rect x="44" y="42" width="3" height="2" fill="#000000" />
<rect x="51" y="42" width="1" height="6" fill="#8F974A" />
<rect x="15" y="43" width="2" height="1" fill="#FEEC98" />
<rect x="21" y="43" width="2" height="5" fill="#000000" />
<rect x="23" y="43" width="3" height="3" fill="#33ECFE" />
<rect x="26" y="43" width="2" height="1" fill="#000000" />
<rect x="28" y="43" width="1" height="1" fill="#FF5B62" />
<rect x="29" y="43" width="1" height="1" fill="#3435FF" />
<rect x="30" y="43" width="1" height="1" fill="#FF5B62" />
<rect x="33" y="43" width="3" height="1" fill="#FF5B62" />
<rect x="36" y="43" width="2" height="1" fill="#000000" />
<rect x="38" y="43" width="3" height="3" fill="#33ECFE" />
<rect x="41" y="43" width="2" height="5" fill="#000000" />
<rect x="50" y="43" width="1" height="4" fill="#8F974A" />
<rect x="15" y="44" width="1" height="2" fill="#FEEC98" />
<rect x="16" y="44" width="3" height="1" fill="#000000" />
<rect x="19" y="44" width="1" height="5" fill="#FF5B62" />
<rect x="26" y="44" width="2" height="6" fill="#33ECFE" />
<rect x="28" y="44" width="3" height="1" fill="#000000" />
<rect x="33" y="44" width="3" height="1" fill="#000000" />
<rect x="36" y="44" width="2" height="6" fill="#33ECFE" />
<rect x="44" y="44" width="1" height="5" fill="#FF5B62" />
<rect x="45" y="44" width="2" height="1" fill="#000000" />
<rect x="49" y="44" width="1" height="2" fill="#8F974A" />
<rect x="62" y="44" width="2" height="2" fill="#B1BA5B" />
<rect x="16" y="45" width="2" height="4" fill="#000000" />
<rect x="18" y="45" width="1" height="7" fill="#FF5B62" />
<rect x="20" y="45" width="1" height="6" fill="#000000" />
<rect x="28" y="45" width="8" height="6" fill="#33ECFE" />
<rect x="43" y="45" width="1" height="6" fill="#000000" />
<rect x="45" y="45" width="1" height="7" fill="#FF5B62" />
<rect x="46" y="45" width="1" height="4" fill="#000000" />
<rect x="48" y="45" width="1" height="1" fill="#8F974A" />
<rect x="14" y="46" width="2" height="2" fill="#000000" />
<rect x="23" y="46" width="1" height="14" fill="#000000" />
<rect x="24" y="46" width="2" height="1" fill="#33ECFE" />
<rect x="38" y="46" width="2" height="1" fill="#33ECFE" />
<rect x="40" y="46" width="1" height="12" fill="#000000" />
<rect x="48" y="46" width="2" height="2" fill="#000000" />
<rect x="62" y="46" width="2" height="2" fill="#726A81" />
<rect x="13" y="47" width="1" height="2" fill="#000000" />
<rect x="24" y="47" width="1" height="4" fill="#000000" />
<rect x="25" y="47" width="1" height="2" fill="#33ECFE" />
<rect x="38" y="47" width="1" height="2" fill="#33ECFE" />
<rect x="39" y="47" width="1" height="7" fill="#000000" />
<rect x="50" y="47" width="1" height="2" fill="#000000" />
<rect x="14" y="48" width="1" height="1" fill="#000000" />
<rect x="15" y="48" width="1" height="7" fill="#FF5B62" />
<rect x="21" y="48" width="1" height="4" fill="#000000" />
<rect x="22" y="48" width="1" height="1" fill="#FEEC98" />
<rect x="41" y="48" width="1" height="1" fill="#FEEC98" />
<rect x="42" y="48" width="1" height="4" fill="#000000" />
<rect x="48" y="48" width="1" height="1" fill="#FF5B62" />
<rect x="49" y="48" width="1" height="1" fill="#000000" />
<rect x="51" y="48" width="2" height="3" fill="#000000" />
<rect x="60" y="48" width="2" height="2" fill="#B1BA5B" />
<rect x="62" y="48" width="2" height="2" fill="#877C5B" />
<rect x="10" y="49" width="1" height="4" fill="#000000" />
<rect x="13" y="49" width="2" height="1" fill="#FF5B62" />
<rect x="16" y="49" width="2" height="4" fill="#FF5B62" />
<rect x="19" y="49" width="1" height="2" fill="#000000" />
<rect x="22" y="49" width="1" height="4" fill="#000000" />
<rect x="25" y="49" width="1" height="15" fill="#000000" />
<rect x="38" y="49" width="1" height="15" fill="#000000" />
<rect x="41" y="49" width="1" height="10" fill="#000000" />
<rect x="44" y="49" width="1" height="3" fill="#000000" />
<rect x="46" y="49" width="2" height="4" fill="#FF5B62" />
<rect x="48" y="49" width="1" height="1" fill="#000000" />
<rect x="49" y="49" width="2" height="1" fill="#FF5B62" />
<rect x="53" y="49" width="1" height="4" fill="#000000" />
<rect x="13" y="50" width="1" height="3" fill="#FF5B62" />
<rect x="14" y="50" width="1" height="3" fill="#000000" />
<rect x="26" y="50" width="1" height="14" fill="#000000" />
<rect x="27" y="50" width="1" height="1" fill="#33ECFE" />
<rect x="36" y="50" width="1" height="1" fill="#33ECFE" />
<rect x="37" y="50" width="1" height="14" fill="#000000" />
<rect x="48" y="50" width="1" height="5" fill="#FF5B62" />
<rect x="49" y="50" width="1" height="3" fill="#000000" />
<rect x="50" y="50" width="1" height="3" fill="#FF5B62" />
<rect x="54" y="50" width="2" height="2" fill="#B1BA5B" />
<rect x="58" y="50" width="2" height="2" fill="#B1BA5B" />
<rect x="60" y="50" width="2" height="2" fill="#726A81" />
<rect x="62" y="50" width="2" height="14" fill="#D8CFF0" />
<rect x="12" y="51" width="1" height="1" fill="#FF5B62" />
<rect x="19" y="51" width="2" height="4" fill="#FF5B62" />
<rect x="24" y="51" width="1" height="7" fill="#FEEC98" />
<rect x="27" y="51" width="3" height="1" fill="#000000" />
<rect x="30" y="51" width="4" height="1" fill="#33ECFE" />
<rect x="34" y="51" width="3" height="1" fill="#000000" />
<rect x="43" y="51" width="1" height="4" fill="#FF5B62" />
<rect x="51" y="51" width="1" height="1" fill="#FF5B62" />
<rect x="52" y="51" width="1" height="3" fill="#000000" />
<rect x="12" y="52" width="1" height="8" fill="#000000" />
<rect x="18" y="52" width="1" height="1" fill="#000000" />
<rect x="21" y="52" width="1" height="1" fill="#FF5B62" />
<rect x="27" y="52" width="1" height="4" fill="#000000" />
<rect x="28" y="52" width="2" height="3" fill="#33ECFE" />
<rect x="30" y="52" width="4" height="1" fill="#000000" />
<rect x="34" y="52" width="2" height="3" fill="#33ECFE" />
<rect x="36" y="52" width="1" height="4" fill="#000000" />
<rect x="42" y="52" width="1" height="1" fill="#FF5B62" />
<rect x="44" y="52" width="1" height="4" fill="#FF5B62" />
<rect x="45" y="52" width="1" height="1" fill="#000000" />
<rect x="51" y="52" width="1" height="4" fill="#000000" />
<rect x="54" y="52" width="6" height="2" fill="#726A81" />
<rect x="60" y="52" width="2" height="2" fill="#877C5B" />
<rect x="10" y="53" width="1" height="11" fill="#D8CFF0" />
<rect x="13" y="53" width="1" height="4" fill="#000000" />
<rect x="14" y="53" width="1" height="2" fill="#FF5B62" />
<rect x="16" y="53" width="1" height="2" fill="#FF5B62" />
<rect x="17" y="53" width="1" height="2" fill="#000000" />
<rect x="18" y="53" width="1" height="3" fill="#FF5B62" />
<rect x="21" y="53" width="1" height="2" fill="#000000" />
<rect x="22" y="53" width="1" height="1" fill="#FF5B62" />
<rect x="30" y="53" width="4" height="4" fill="#33ECFE" />
<rect x="42" y="53" width="1" height="6" fill="#000000" />
<rect x="45" y="53" width="1" height="3" fill="#FF5B62" />
<rect x="46" y="53" width="1" height="2" fill="#000000" />
<rect x="47" y="53" width="1" height="2" fill="#FF5B62" />
<rect x="49" y="53" width="1" height="2" fill="#FF5B62" />
<rect x="50" y="53" width="1" height="4" fill="#000000" />
<rect x="53" y="53" width="1" height="1" fill="#B1BA5B" />
<rect x="22" y="54" width="1" height="6" fill="#000000" />
<rect x="39" y="54" width="1" height="7" fill="#8F974A" />
<rect x="52" y="54" width="2" height="2" fill="#8F974A" />
<rect x="54" y="54" width="6" height="2" fill="#877C5B" />
<rect x="60" y="54" width="2" height="10" fill="#D8CFF0" />
<rect x="14" y="55" width="3" height="5" fill="#000000" />
<rect x="17" y="55" width="1" height="1" fill="#FF5B62" />
<rect x="19" y="55" width="1" height="1" fill="#FF5B62" />
<rect x="20" y="55" width="1" height="5" fill="#000000" />
<rect x="21" y="55" width="1" height="2" fill="#FF5B62" />
<rect x="28" y="55" width="1" height="1" fill="#000000" />
<rect x="29" y="55" width="1" height="1" fill="#33ECFE" />
<rect x="34" y="55" width="1" height="1" fill="#33ECFE" />
<rect x="35" y="55" width="1" height="1" fill="#000000" />
<rect x="43" y="55" width="1" height="4" fill="#000000" />
<rect x="46" y="55" width="1" height="1" fill="#FF5B62" />
<rect x="47" y="55" width="3" height="3" fill="#000000" />
<rect x="17" y="56" width="3" height="4" fill="#000000" />
<rect x="27" y="56" width="2" height="3" fill="#33ECFE" />
<rect x="29" y="56" width="1" height="8" fill="#000000" />
<rect x="34" y="56" width="1" height="8" fill="#000000" />
<rect x="35" y="56" width="2" height="3" fill="#33ECFE" />
<rect x="44" y="56" width="3" height="3" fill="#000000" />
<rect x="51" y="56" width="1" height="2" fill="#8F974A" />
<rect x="52" y="56" width="2" height="2" fill="#B1BA5B" />
<rect x="54" y="56" width="6" height="8" fill="#D8CFF0" />
<rect x="13" y="57" width="1" height="1" fill="#FEEC98" />
<rect x="21" y="57" width="1" height="3" fill="#000000" />
<rect x="30" y="57" width="1" height="7" fill="#000000" />
<rect x="31" y="57" width="2" height="1" fill="#33ECFE" />
<rect x="33" y="57" width="1" height="7" fill="#000000" />
<rect x="50" y="57" width="1" height="1" fill="#8F974A" />
<rect x="13" y="58" width="1" height="2" fill="#000000" />
<rect x="24" y="58" width="1" height="2" fill="#000000" />
<rect x="31" y="58" width="2" height="2" fill="#000000" />
<rect x="40" y="58" width="1" height="4" fill="#8F974A" />
<rect x="47" y="58" width="3" height="2" fill="#8F974A" />
<rect x="50" y="58" width="2" height="2" fill="#B1BA5B" />
<rect x="52" y="58" width="2" height="2" fill="#726A81" />
<rect x="11" y="59" width="1" height="5" fill="#D8CFF0" />
<rect x="27" y="59" width="1" height="3" fill="#000000" />
<rect x="28" y="59" width="1" height="4" fill="#33ECFE" />
<rect x="35" y="59" width="1" height="4" fill="#33ECFE" />
<rect x="36" y="59" width="1" height="3" fill="#000000" />
<rect x="41" y="59" width="6" height="1" fill="#8F974A" />
<rect x="12" y="60" width="2" height="2" fill="#877C5B" />
<rect x="14" y="60" width="2" height="2" fill="#726A81" />
<rect x="16" y="60" width="2" height="2" fill="#B1BA5B" />
<rect x="18" y="60" width="7" height="1" fill="#8F974A" />
<rect x="31" y="60" width="2" height="4" fill="#8F974A" />
<rect x="41" y="60" width="5" height="2" fill="#8F974A" />
<rect x="46" y="60" width="2" height="2" fill="#B1BA5B" />
<rect x="48" y="60" width="4" height="2" fill="#726A81" />
<rect x="52" y="60" width="2" height="2" fill="#877C5B" />
<rect x="18" y="61" width="6" height="1" fill="#8F974A" />
<rect x="24" y="61" width="1" height="3" fill="#000000" />
<rect x="39" y="61" width="1" height="3" fill="#000000" />
<rect x="12" y="62" width="2" height="2" fill="#D8CFF0" />
<rect x="14" y="62" width="2" height="2" fill="#877C5B" />
<rect x="16" y="62" width="2" height="2" fill="#726A81" />
<rect x="18" y="62" width="2" height="2" fill="#B1BA5B" />
<rect x="20" y="62" width="2" height="2" fill="#8F974A" />
<rect x="22" y="62" width="2" height="2" fill="#000000" />
<rect x="27" y="62" width="1" height="1" fill="#33ECFE" />
<rect x="36" y="62" width="1" height="1" fill="#33ECFE" />
<rect x="40" y="62" width="2" height="2" fill="#000000" />
<rect x="42" y="62" width="4" height="2" fill="#8F974A" />
<rect x="46" y="62" width="2" height="2" fill="#726A81" />
<rect x="48" y="62" width="4" height="2" fill="#877C5B" />
<rect x="52" y="62" width="2" height="2" fill="#D8CFF0" />
<rect x="27" y="63" width="2" height="1" fill="#000000" />
<rect x="35" y="63" width="2" height="1" fill="#000000" />
</svg>